<mxfile host="app.diagrams.net" agent="Mozilla/5.0 (X11; Linux x86_64; rv:132.0) Gecko/20100101 Firefox/132.0" version="24.8.3">
  <diagram name="Página-1" id="9vREBXogpgw-cOhk3eHp">
    <mxGraphModel dx="4005" dy="2778" grid="1" gridSize="10" guides="1" tooltips="1" connect="1" arrows="1" fold="1" page="1" pageScale="1" pageWidth="827" pageHeight="1169" math="0" shadow="0">
      <root>
        <mxCell id="0" />
        <mxCell id="1" parent="0" />
        <mxCell id="1xZOdAHlnj8blG5HcDeI-1" value="" style="rounded=0;whiteSpace=wrap;html=1;" parent="1" vertex="1">
          <mxGeometry x="-310" y="180" width="630" height="60" as="geometry" />
        </mxCell>
        <mxCell id="1xZOdAHlnj8blG5HcDeI-4" value="&lt;font face=&quot;Verdana&quot; style=&quot;font-size: 24px;&quot;&gt;Aluno&lt;/font&gt;" style="text;html=1;align=center;verticalAlign=middle;whiteSpace=wrap;rounded=0;" parent="1" vertex="1">
          <mxGeometry x="-300" y="150" width="60" height="30" as="geometry" />
        </mxCell>
        <mxCell id="1xZOdAHlnj8blG5HcDeI-5" value="&lt;font face=&quot;Verdana&quot; style=&quot;font-size: 24px;&quot;&gt;&lt;u&gt;e-mail&lt;/u&gt;&lt;/font&gt;" style="text;html=1;align=center;verticalAlign=middle;whiteSpace=wrap;rounded=0;" parent="1" vertex="1">
          <mxGeometry x="-310" y="195" width="100" height="30" as="geometry" />
        </mxCell>
        <mxCell id="1xZOdAHlnj8blG5HcDeI-6" value="&lt;font face=&quot;Verdana&quot; style=&quot;font-size: 24px;&quot;&gt;nome&lt;/font&gt;" style="text;html=1;align=center;verticalAlign=middle;whiteSpace=wrap;rounded=0;" parent="1" vertex="1">
          <mxGeometry x="-220" y="195" width="100" height="30" as="geometry" />
        </mxCell>
        <mxCell id="1xZOdAHlnj8blG5HcDeI-7" value="&lt;font face=&quot;Verdana&quot; style=&quot;font-size: 24px;&quot;&gt;d&lt;/font&gt;&lt;span style=&quot;font-size: 24px; font-family: Verdana; background-color: initial;&quot;&gt;ata_nasc&lt;/span&gt;" style="text;html=1;align=center;verticalAlign=middle;whiteSpace=wrap;rounded=0;" parent="1" vertex="1">
          <mxGeometry x="-100" y="195" width="100" height="30" as="geometry" />
        </mxCell>
        <mxCell id="1xZOdAHlnj8blG5HcDeI-8" value="&lt;font face=&quot;Verdana&quot; style=&quot;font-size: 24px;&quot;&gt;status_plano&lt;/font&gt;" style="text;html=1;align=center;verticalAlign=middle;whiteSpace=wrap;rounded=0;" parent="1" vertex="1">
          <mxGeometry x="60" y="195" width="100" height="30" as="geometry" />
        </mxCell>
        <mxCell id="1xZOdAHlnj8blG5HcDeI-9" value="&lt;font face=&quot;Verdana&quot; style=&quot;font-size: 24px;&quot;&gt;histórico&lt;/font&gt;" style="text;html=1;align=center;verticalAlign=middle;whiteSpace=wrap;rounded=0;" parent="1" vertex="1">
          <mxGeometry x="210" y="195" width="100" height="30" as="geometry" />
        </mxCell>
        <mxCell id="1xZOdAHlnj8blG5HcDeI-19" value="" style="line;strokeWidth=2;direction=south;html=1;" parent="1" vertex="1">
          <mxGeometry x="-220" y="180" width="10" height="60" as="geometry" />
        </mxCell>
        <mxCell id="1xZOdAHlnj8blG5HcDeI-20" value="" style="line;strokeWidth=2;direction=south;html=1;" parent="1" vertex="1">
          <mxGeometry x="-130" y="180" width="10" height="60" as="geometry" />
        </mxCell>
        <mxCell id="1xZOdAHlnj8blG5HcDeI-25" value="" style="line;strokeWidth=2;direction=south;html=1;" parent="1" vertex="1">
          <mxGeometry x="20" y="180" width="10" height="60" as="geometry" />
        </mxCell>
        <mxCell id="1xZOdAHlnj8blG5HcDeI-26" value="" style="line;strokeWidth=2;direction=south;html=1;" parent="1" vertex="1">
          <mxGeometry x="190" y="180" width="10" height="60" as="geometry" />
        </mxCell>
        <mxCell id="1xZOdAHlnj8blG5HcDeI-29" value="" style="rounded=0;whiteSpace=wrap;html=1;" parent="1" vertex="1">
          <mxGeometry x="430" y="270" width="630" height="60" as="geometry" />
        </mxCell>
        <mxCell id="1xZOdAHlnj8blG5HcDeI-30" value="&lt;font face=&quot;Verdana&quot; style=&quot;font-size: 24px;&quot;&gt;Curso&lt;/font&gt;" style="text;html=1;align=center;verticalAlign=middle;whiteSpace=wrap;rounded=0;" parent="1" vertex="1">
          <mxGeometry x="440" y="240" width="60" height="30" as="geometry" />
        </mxCell>
        <mxCell id="1xZOdAHlnj8blG5HcDeI-31" value="&lt;font face=&quot;Verdana&quot; style=&quot;font-size: 24px;&quot;&gt;&lt;u&gt;nome&lt;/u&gt;&lt;/font&gt;" style="text;html=1;align=center;verticalAlign=middle;whiteSpace=wrap;rounded=0;" parent="1" vertex="1">
          <mxGeometry x="430" y="285" width="100" height="30" as="geometry" />
        </mxCell>
        <mxCell id="1xZOdAHlnj8blG5HcDeI-32" value="&lt;font face=&quot;Verdana&quot; style=&quot;font-size: 24px;&quot;&gt;descrição&lt;/font&gt;" style="text;html=1;align=center;verticalAlign=middle;whiteSpace=wrap;rounded=0;" parent="1" vertex="1">
          <mxGeometry x="540" y="285" width="100" height="30" as="geometry" />
        </mxCell>
        <mxCell id="1xZOdAHlnj8blG5HcDeI-33" value="&lt;font face=&quot;Verdana&quot; style=&quot;font-size: 24px;&quot;&gt;duração&lt;/font&gt;" style="text;html=1;align=center;verticalAlign=middle;whiteSpace=wrap;rounded=0;" parent="1" vertex="1">
          <mxGeometry x="660" y="285" width="100" height="30" as="geometry" />
        </mxCell>
        <mxCell id="1xZOdAHlnj8blG5HcDeI-34" value="&lt;font face=&quot;Verdana&quot; style=&quot;font-size: 24px;&quot;&gt;nível&lt;/font&gt;" style="text;html=1;align=center;verticalAlign=middle;whiteSpace=wrap;rounded=0;" parent="1" vertex="1">
          <mxGeometry x="750" y="285" width="100" height="30" as="geometry" />
        </mxCell>
        <mxCell id="1xZOdAHlnj8blG5HcDeI-35" value="&lt;font face=&quot;Verdana&quot; style=&quot;font-size: 24px;&quot;&gt;data_lançamento&lt;/font&gt;" style="text;html=1;align=center;verticalAlign=middle;whiteSpace=wrap;rounded=0;" parent="1" vertex="1">
          <mxGeometry x="900" y="285" width="100" height="30" as="geometry" />
        </mxCell>
        <mxCell id="1xZOdAHlnj8blG5HcDeI-36" value="" style="line;strokeWidth=2;direction=south;html=1;" parent="1" vertex="1">
          <mxGeometry x="520" y="270" width="10" height="60" as="geometry" />
        </mxCell>
        <mxCell id="1xZOdAHlnj8blG5HcDeI-37" value="" style="line;strokeWidth=2;direction=south;html=1;" parent="1" vertex="1">
          <mxGeometry x="650" y="270" width="10" height="60" as="geometry" />
        </mxCell>
        <mxCell id="1xZOdAHlnj8blG5HcDeI-38" value="" style="line;strokeWidth=2;direction=south;html=1;" parent="1" vertex="1">
          <mxGeometry x="760" y="270" width="10" height="60" as="geometry" />
        </mxCell>
        <mxCell id="1xZOdAHlnj8blG5HcDeI-39" value="" style="line;strokeWidth=2;direction=south;html=1;" parent="1" vertex="1">
          <mxGeometry x="830" y="270" width="10" height="60" as="geometry" />
        </mxCell>
        <mxCell id="1xZOdAHlnj8blG5HcDeI-42" value="" style="rounded=0;whiteSpace=wrap;html=1;" parent="1" vertex="1">
          <mxGeometry x="1240" y="200" width="620" height="60" as="geometry" />
        </mxCell>
        <mxCell id="1xZOdAHlnj8blG5HcDeI-43" value="&lt;font face=&quot;Verdana&quot; style=&quot;font-size: 24px;&quot;&gt;Professor&lt;/font&gt;" style="text;html=1;align=center;verticalAlign=middle;whiteSpace=wrap;rounded=0;" parent="1" vertex="1">
          <mxGeometry x="1270" y="170" width="60" height="30" as="geometry" />
        </mxCell>
        <mxCell id="1xZOdAHlnj8blG5HcDeI-45" value="&lt;font face=&quot;Verdana&quot; style=&quot;font-size: 24px;&quot;&gt;&lt;span&gt;nome&lt;/span&gt;&lt;/font&gt;" style="text;html=1;align=center;verticalAlign=middle;whiteSpace=wrap;rounded=0;fontStyle=0" parent="1" vertex="1">
          <mxGeometry x="1330" y="215" width="100" height="30" as="geometry" />
        </mxCell>
        <mxCell id="1xZOdAHlnj8blG5HcDeI-47" value="&lt;font style=&quot;font-size: 24px;&quot; face=&quot;Verdana&quot;&gt;e-mail&lt;/font&gt;" style="text;html=1;align=center;verticalAlign=middle;whiteSpace=wrap;rounded=0;fontStyle=4" parent="1" vertex="1">
          <mxGeometry x="1240" y="215" width="100" height="30" as="geometry" />
        </mxCell>
        <mxCell id="1xZOdAHlnj8blG5HcDeI-48" value="&lt;font face=&quot;Verdana&quot; style=&quot;font-size: 24px;&quot;&gt;especialização&lt;/font&gt;" style="text;html=1;align=center;verticalAlign=middle;whiteSpace=wrap;rounded=0;" parent="1" vertex="1">
          <mxGeometry x="1470" y="215" width="100" height="30" as="geometry" />
        </mxCell>
        <mxCell id="1xZOdAHlnj8blG5HcDeI-49" value="&lt;font face=&quot;Verdana&quot; style=&quot;font-size: 24px;&quot;&gt;cursos_ministrados&lt;/font&gt;" style="text;html=1;align=center;verticalAlign=middle;whiteSpace=wrap;rounded=0;" parent="1" vertex="1">
          <mxGeometry x="1690" y="215" width="100" height="30" as="geometry" />
        </mxCell>
        <mxCell id="1xZOdAHlnj8blG5HcDeI-51" value="" style="line;strokeWidth=2;direction=south;html=1;" parent="1" vertex="1">
          <mxGeometry x="1330" y="200" width="10" height="60" as="geometry" />
        </mxCell>
        <mxCell id="1xZOdAHlnj8blG5HcDeI-52" value="" style="line;strokeWidth=2;direction=south;html=1;" parent="1" vertex="1">
          <mxGeometry x="1420" y="200" width="10" height="60" as="geometry" />
        </mxCell>
        <mxCell id="1xZOdAHlnj8blG5HcDeI-53" value="" style="line;strokeWidth=2;direction=south;html=1;" parent="1" vertex="1">
          <mxGeometry x="1610" y="200" width="10" height="60" as="geometry" />
        </mxCell>
        <mxCell id="1xZOdAHlnj8blG5HcDeI-55" value="" style="rounded=0;whiteSpace=wrap;html=1;" parent="1" vertex="1">
          <mxGeometry x="827" y="650" width="570" height="60" as="geometry" />
        </mxCell>
        <mxCell id="1xZOdAHlnj8blG5HcDeI-56" value="&lt;font face=&quot;Verdana&quot; style=&quot;font-size: 24px;&quot;&gt;Módulo&lt;/font&gt;" style="text;html=1;align=center;verticalAlign=middle;whiteSpace=wrap;rounded=0;" parent="1" vertex="1">
          <mxGeometry x="844" y="620" width="60" height="30" as="geometry" />
        </mxCell>
        <mxCell id="1xZOdAHlnj8blG5HcDeI-58" value="&lt;font face=&quot;Verdana&quot; style=&quot;font-size: 24px;&quot;&gt;nome&lt;/font&gt;" style="text;html=1;align=center;verticalAlign=middle;whiteSpace=wrap;rounded=0;" parent="1" vertex="1">
          <mxGeometry x="857" y="665" width="100" height="30" as="geometry" />
        </mxCell>
        <mxCell id="1xZOdAHlnj8blG5HcDeI-59" value="&lt;font face=&quot;Verdana&quot; style=&quot;font-size: 24px;&quot;&gt;descrição&lt;/font&gt;" style="text;html=1;align=center;verticalAlign=middle;whiteSpace=wrap;rounded=0;" parent="1" vertex="1">
          <mxGeometry x="1012" y="665" width="100" height="30" as="geometry" />
        </mxCell>
        <mxCell id="1xZOdAHlnj8blG5HcDeI-60" value="&lt;font face=&quot;Verdana&quot; style=&quot;font-size: 24px;&quot;&gt;ordem_no_curso&lt;/font&gt;" style="text;html=1;align=center;verticalAlign=middle;whiteSpace=wrap;rounded=0;" parent="1" vertex="1">
          <mxGeometry x="1172" y="665" width="200" height="30" as="geometry" />
        </mxCell>
        <mxCell id="1xZOdAHlnj8blG5HcDeI-62" value="" style="line;strokeWidth=2;direction=south;html=1;" parent="1" vertex="1">
          <mxGeometry x="972" y="650" width="10" height="60" as="geometry" />
        </mxCell>
        <mxCell id="1xZOdAHlnj8blG5HcDeI-63" value="" style="line;strokeWidth=2;direction=south;html=1;" parent="1" vertex="1">
          <mxGeometry x="1132" y="650" width="10" height="60" as="geometry" />
        </mxCell>
        <mxCell id="1xZOdAHlnj8blG5HcDeI-66" value="" style="rounded=0;whiteSpace=wrap;html=1;" parent="1" vertex="1">
          <mxGeometry x="1090" y="1040" width="840" height="60" as="geometry" />
        </mxCell>
        <mxCell id="1xZOdAHlnj8blG5HcDeI-67" value="&lt;font face=&quot;Verdana&quot; style=&quot;font-size: 24px;&quot;&gt;Aula&lt;/font&gt;" style="text;html=1;align=center;verticalAlign=middle;whiteSpace=wrap;rounded=0;" parent="1" vertex="1">
          <mxGeometry x="1090" y="1010" width="60" height="30" as="geometry" />
        </mxCell>
        <mxCell id="1xZOdAHlnj8blG5HcDeI-69" value="&lt;font face=&quot;Verdana&quot; style=&quot;font-size: 24px;&quot;&gt;nome&lt;/font&gt;" style="text;html=1;align=center;verticalAlign=middle;whiteSpace=wrap;rounded=0;" parent="1" vertex="1">
          <mxGeometry x="1120" y="1055" width="100" height="30" as="geometry" />
        </mxCell>
        <mxCell id="1xZOdAHlnj8blG5HcDeI-70" value="&lt;font face=&quot;Verdana&quot; style=&quot;font-size: 24px;&quot;&gt;descrição&lt;/font&gt;" style="text;html=1;align=center;verticalAlign=middle;whiteSpace=wrap;rounded=0;" parent="1" vertex="1">
          <mxGeometry x="1290" y="1055" width="100" height="30" as="geometry" />
        </mxCell>
        <mxCell id="1xZOdAHlnj8blG5HcDeI-71" value="&lt;font face=&quot;Verdana&quot; style=&quot;font-size: 24px;&quot;&gt;duração&lt;/font&gt;" style="text;html=1;align=center;verticalAlign=middle;whiteSpace=wrap;rounded=0;" parent="1" vertex="1">
          <mxGeometry x="1460" y="1055" width="100" height="30" as="geometry" />
        </mxCell>
        <mxCell id="1xZOdAHlnj8blG5HcDeI-72" value="&lt;font face=&quot;Verdana&quot; style=&quot;font-size: 24px;&quot;&gt;tipo&lt;/font&gt;" style="text;html=1;align=center;verticalAlign=middle;whiteSpace=wrap;rounded=0;" parent="1" vertex="1">
          <mxGeometry x="1610" y="1055" width="60" height="30" as="geometry" />
        </mxCell>
        <mxCell id="1xZOdAHlnj8blG5HcDeI-73" value="&lt;font face=&quot;Verdana&quot; style=&quot;font-size: 24px;&quot;&gt;ordem_no_módulo&lt;/font&gt;" style="text;html=1;align=center;verticalAlign=middle;whiteSpace=wrap;rounded=0;" parent="1" vertex="1">
          <mxGeometry x="1760" y="1055" width="100" height="30" as="geometry" />
        </mxCell>
        <mxCell id="1xZOdAHlnj8blG5HcDeI-75" value="" style="line;strokeWidth=2;direction=south;html=1;" parent="1" vertex="1">
          <mxGeometry x="1420" y="1040" width="10" height="60" as="geometry" />
        </mxCell>
        <mxCell id="1xZOdAHlnj8blG5HcDeI-76" value="" style="line;strokeWidth=2;direction=south;html=1;" parent="1" vertex="1">
          <mxGeometry x="1580" y="1040" width="10" height="60" as="geometry" />
        </mxCell>
        <mxCell id="1xZOdAHlnj8blG5HcDeI-77" value="" style="line;strokeWidth=2;direction=south;html=1;" parent="1" vertex="1">
          <mxGeometry x="1240" y="1040" width="10" height="60" as="geometry" />
        </mxCell>
        <mxCell id="1xZOdAHlnj8blG5HcDeI-81" value="" style="line;strokeWidth=2;direction=south;html=1;" parent="1" vertex="1">
          <mxGeometry x="1680" y="1040" width="10" height="60" as="geometry" />
        </mxCell>
        <mxCell id="1xZOdAHlnj8blG5HcDeI-82" value="" style="rounded=0;whiteSpace=wrap;html=1;" parent="1" vertex="1">
          <mxGeometry x="-300" y="710" width="380" height="60" as="geometry" />
        </mxCell>
        <mxCell id="1xZOdAHlnj8blG5HcDeI-83" value="&lt;font face=&quot;Verdana&quot; style=&quot;font-size: 24px;&quot;&gt;Vaga&lt;/font&gt;" style="text;html=1;align=center;verticalAlign=middle;whiteSpace=wrap;rounded=0;" parent="1" vertex="1">
          <mxGeometry x="-290" y="680" width="60" height="30" as="geometry" />
        </mxCell>
        <mxCell id="1xZOdAHlnj8blG5HcDeI-84" value="&lt;font face=&quot;Verdana&quot; style=&quot;font-size: 24px;&quot;&gt;&lt;u&gt;id_vaga&lt;/u&gt;&lt;/font&gt;" style="text;html=1;align=center;verticalAlign=middle;whiteSpace=wrap;rounded=0;" parent="1" vertex="1">
          <mxGeometry x="-290" y="725" width="100" height="30" as="geometry" />
        </mxCell>
        <mxCell id="1xZOdAHlnj8blG5HcDeI-85" value="&lt;font face=&quot;Verdana&quot; style=&quot;font-size: 24px;&quot;&gt;descrição&lt;/font&gt;" style="text;html=1;align=center;verticalAlign=middle;whiteSpace=wrap;rounded=0;" parent="1" vertex="1">
          <mxGeometry x="-30" y="725" width="100" height="30" as="geometry" />
        </mxCell>
        <mxCell id="1xZOdAHlnj8blG5HcDeI-96" value="" style="line;strokeWidth=2;direction=south;html=1;" parent="1" vertex="1">
          <mxGeometry x="-50" y="710" width="10" height="60" as="geometry" />
        </mxCell>
        <mxCell id="1xZOdAHlnj8blG5HcDeI-104" value="" style="rounded=0;whiteSpace=wrap;html=1;" parent="1" vertex="1">
          <mxGeometry x="-240" y="1020" width="330" height="60" as="geometry" />
        </mxCell>
        <mxCell id="1xZOdAHlnj8blG5HcDeI-105" value="&lt;font face=&quot;Verdana&quot; style=&quot;font-size: 24px;&quot;&gt;Empresa&lt;/font&gt;" style="text;html=1;align=center;verticalAlign=middle;whiteSpace=wrap;rounded=0;" parent="1" vertex="1">
          <mxGeometry x="-235" y="990" width="60" height="30" as="geometry" />
        </mxCell>
        <mxCell id="1xZOdAHlnj8blG5HcDeI-106" value="&lt;font face=&quot;Verdana&quot; style=&quot;font-size: 24px;&quot;&gt;&lt;u&gt;nome&lt;/u&gt;&lt;/font&gt;" style="text;html=1;align=center;verticalAlign=middle;whiteSpace=wrap;rounded=0;" parent="1" vertex="1">
          <mxGeometry x="-240" y="1035" width="100" height="30" as="geometry" />
        </mxCell>
        <mxCell id="1xZOdAHlnj8blG5HcDeI-107" value="&lt;font face=&quot;Verdana&quot; style=&quot;font-size: 24px;&quot;&gt;localização&lt;/font&gt;" style="text;html=1;align=center;verticalAlign=middle;whiteSpace=wrap;rounded=0;" parent="1" vertex="1">
          <mxGeometry x="-120" y="1035" width="100" height="30" as="geometry" />
        </mxCell>
        <mxCell id="1xZOdAHlnj8blG5HcDeI-108" value="&lt;font face=&quot;Verdana&quot; style=&quot;font-size: 24px;&quot;&gt;setor&lt;/font&gt;" style="text;html=1;align=center;verticalAlign=middle;whiteSpace=wrap;rounded=0;" parent="1" vertex="1">
          <mxGeometry y="1035" width="100" height="30" as="geometry" />
        </mxCell>
        <mxCell id="1xZOdAHlnj8blG5HcDeI-109" value="" style="line;strokeWidth=2;direction=south;html=1;" parent="1" vertex="1">
          <mxGeometry x="-150" y="1020" width="10" height="60" as="geometry" />
        </mxCell>
        <mxCell id="1xZOdAHlnj8blG5HcDeI-112" value="" style="line;strokeWidth=2;direction=south;html=1;" parent="1" vertex="1">
          <mxGeometry y="1020" width="10" height="60" as="geometry" />
        </mxCell>
        <mxCell id="fgC8I-oqLa6KgGw46Ecn-32" style="edgeStyle=orthogonalEdgeStyle;rounded=0;orthogonalLoop=1;jettySize=auto;html=1;" edge="1" parent="1" source="1xZOdAHlnj8blG5HcDeI-114" target="1xZOdAHlnj8blG5HcDeI-106">
          <mxGeometry relative="1" as="geometry" />
        </mxCell>
        <mxCell id="1xZOdAHlnj8blG5HcDeI-114" value="&lt;font face=&quot;Verdana&quot; style=&quot;font-size: 24px;&quot;&gt;empresa&lt;/font&gt;" style="text;html=1;align=center;verticalAlign=middle;whiteSpace=wrap;rounded=0;" parent="1" vertex="1">
          <mxGeometry x="-160" y="725" width="100" height="30" as="geometry" />
        </mxCell>
        <mxCell id="1xZOdAHlnj8blG5HcDeI-115" value="" style="line;strokeWidth=2;direction=south;html=1;" parent="1" vertex="1">
          <mxGeometry x="-180" y="710" width="10" height="60" as="geometry" />
        </mxCell>
        <mxCell id="1xZOdAHlnj8blG5HcDeI-121" value="" style="rounded=0;whiteSpace=wrap;html=1;" parent="1" vertex="1">
          <mxGeometry x="147" y="10" width="650" height="60" as="geometry" />
        </mxCell>
        <mxCell id="1xZOdAHlnj8blG5HcDeI-122" value="&lt;font face=&quot;Verdana&quot; style=&quot;font-size: 24px;&quot;&gt;Estudam&lt;/font&gt;" style="text;html=1;align=center;verticalAlign=middle;whiteSpace=wrap;rounded=0;" parent="1" vertex="1">
          <mxGeometry x="177" y="-20" width="60" height="30" as="geometry" />
        </mxCell>
        <mxCell id="fgC8I-oqLa6KgGw46Ecn-40" style="edgeStyle=orthogonalEdgeStyle;rounded=0;orthogonalLoop=1;jettySize=auto;html=1;" edge="1" parent="1" source="1xZOdAHlnj8blG5HcDeI-123" target="1xZOdAHlnj8blG5HcDeI-5">
          <mxGeometry relative="1" as="geometry" />
        </mxCell>
        <mxCell id="1xZOdAHlnj8blG5HcDeI-123" value="&lt;font style=&quot;font-size: 24px;&quot; face=&quot;Verdana&quot;&gt;e-mail_aluno&lt;/font&gt;" style="text;html=1;align=center;verticalAlign=middle;whiteSpace=wrap;rounded=0;fontStyle=4" parent="1" vertex="1">
          <mxGeometry x="160" y="25" width="160" height="30" as="geometry" />
        </mxCell>
        <mxCell id="fgC8I-oqLa6KgGw46Ecn-41" style="edgeStyle=orthogonalEdgeStyle;rounded=0;orthogonalLoop=1;jettySize=auto;html=1;" edge="1" parent="1" source="1xZOdAHlnj8blG5HcDeI-124" target="1xZOdAHlnj8blG5HcDeI-31">
          <mxGeometry relative="1" as="geometry" />
        </mxCell>
        <mxCell id="1xZOdAHlnj8blG5HcDeI-124" value="&lt;font style=&quot;font-size: 24px;&quot; face=&quot;Verdana&quot;&gt;nome_curso&lt;/font&gt;" style="text;html=1;align=center;verticalAlign=middle;whiteSpace=wrap;rounded=0;fontStyle=4" parent="1" vertex="1">
          <mxGeometry x="321" y="25" width="174" height="30" as="geometry" />
        </mxCell>
        <mxCell id="1xZOdAHlnj8blG5HcDeI-125" value="&lt;font face=&quot;Verdana&quot; style=&quot;font-size: 24px;&quot;&gt;data_conclusão&lt;/font&gt;" style="text;html=1;align=center;verticalAlign=middle;whiteSpace=wrap;rounded=0;" parent="1" vertex="1">
          <mxGeometry x="517" y="25" width="174" height="30" as="geometry" />
        </mxCell>
        <mxCell id="1xZOdAHlnj8blG5HcDeI-126" value="&lt;font face=&quot;Verdana&quot; style=&quot;font-size: 24px;&quot;&gt;nota&lt;/font&gt;" style="text;html=1;align=center;verticalAlign=middle;whiteSpace=wrap;rounded=0;" parent="1" vertex="1">
          <mxGeometry x="670" y="25" width="174" height="30" as="geometry" />
        </mxCell>
        <mxCell id="1xZOdAHlnj8blG5HcDeI-127" value="" style="line;strokeWidth=2;direction=south;html=1;" parent="1" vertex="1">
          <mxGeometry x="321" y="10" width="10" height="60" as="geometry" />
        </mxCell>
        <mxCell id="1xZOdAHlnj8blG5HcDeI-128" value="" style="line;strokeWidth=2;direction=south;html=1;" parent="1" vertex="1">
          <mxGeometry x="491" y="10" width="10" height="60" as="geometry" />
        </mxCell>
        <mxCell id="1xZOdAHlnj8blG5HcDeI-129" value="" style="line;strokeWidth=2;direction=south;html=1;" parent="1" vertex="1">
          <mxGeometry x="707" y="10" width="10" height="60" as="geometry" />
        </mxCell>
        <mxCell id="1xZOdAHlnj8blG5HcDeI-132" value="" style="rounded=0;whiteSpace=wrap;html=1;" parent="1" vertex="1">
          <mxGeometry x="940" y="-60" width="430" height="60" as="geometry" />
        </mxCell>
        <mxCell id="1xZOdAHlnj8blG5HcDeI-133" value="&lt;font face=&quot;Verdana&quot; style=&quot;font-size: 24px;&quot;&gt;Ministram&lt;/font&gt;" style="text;html=1;align=center;verticalAlign=middle;whiteSpace=wrap;rounded=0;" parent="1" vertex="1">
          <mxGeometry x="961" y="-90" width="60" height="30" as="geometry" />
        </mxCell>
        <mxCell id="fgC8I-oqLa6KgGw46Ecn-42" style="edgeStyle=orthogonalEdgeStyle;rounded=0;orthogonalLoop=1;jettySize=auto;html=1;" edge="1" parent="1" source="1xZOdAHlnj8blG5HcDeI-134" target="1xZOdAHlnj8blG5HcDeI-47">
          <mxGeometry relative="1" as="geometry" />
        </mxCell>
        <mxCell id="1xZOdAHlnj8blG5HcDeI-134" value="&lt;font style=&quot;font-size: 24px;&quot; face=&quot;Verdana&quot;&gt;e-mail_professor&lt;/font&gt;" style="text;html=1;align=center;verticalAlign=middle;whiteSpace=wrap;rounded=0;fontStyle=4" parent="1" vertex="1">
          <mxGeometry x="1150" y="-45" width="230" height="30" as="geometry" />
        </mxCell>
        <mxCell id="fgC8I-oqLa6KgGw46Ecn-44" style="edgeStyle=orthogonalEdgeStyle;rounded=0;orthogonalLoop=1;jettySize=auto;html=1;entryX=0.75;entryY=0;entryDx=0;entryDy=0;" edge="1" parent="1" source="1xZOdAHlnj8blG5HcDeI-135" target="1xZOdAHlnj8blG5HcDeI-31">
          <mxGeometry relative="1" as="geometry">
            <Array as="points">
              <mxPoint x="1045" y="140" />
              <mxPoint x="505" y="140" />
            </Array>
          </mxGeometry>
        </mxCell>
        <mxCell id="1xZOdAHlnj8blG5HcDeI-135" value="&lt;font style=&quot;font-size: 24px;&quot; face=&quot;Verdana&quot;&gt;nome_curso&lt;/font&gt;" style="text;html=1;align=center;verticalAlign=middle;whiteSpace=wrap;rounded=0;fontStyle=4" parent="1" vertex="1">
          <mxGeometry x="995" y="-45" width="100" height="30" as="geometry" />
        </mxCell>
        <mxCell id="1xZOdAHlnj8blG5HcDeI-136" value="" style="line;strokeWidth=2;direction=south;html=1;" parent="1" vertex="1">
          <mxGeometry x="1140" y="-60" width="10" height="60" as="geometry" />
        </mxCell>
        <mxCell id="1xZOdAHlnj8blG5HcDeI-146" value="" style="rounded=0;whiteSpace=wrap;html=1;" parent="1" vertex="1">
          <mxGeometry x="-470" y="300" width="360" height="60" as="geometry" />
        </mxCell>
        <mxCell id="1xZOdAHlnj8blG5HcDeI-147" value="&lt;font face=&quot;Verdana&quot;&gt;&lt;span style=&quot;font-size: 24px;&quot;&gt;Se_Qualificam&lt;/span&gt;&lt;/font&gt;" style="text;html=1;align=center;verticalAlign=middle;whiteSpace=wrap;rounded=0;" parent="1" vertex="1">
          <mxGeometry x="-450" y="270" width="122" height="30" as="geometry" />
        </mxCell>
        <mxCell id="fgC8I-oqLa6KgGw46Ecn-35" style="edgeStyle=orthogonalEdgeStyle;rounded=0;orthogonalLoop=1;jettySize=auto;html=1;" edge="1" parent="1" source="1xZOdAHlnj8blG5HcDeI-148" target="1xZOdAHlnj8blG5HcDeI-5">
          <mxGeometry relative="1" as="geometry" />
        </mxCell>
        <mxCell id="1xZOdAHlnj8blG5HcDeI-148" value="&lt;font style=&quot;font-size: 24px;&quot; face=&quot;Verdana&quot;&gt;e-mail_aluno&lt;/font&gt;" style="text;html=1;align=center;verticalAlign=middle;whiteSpace=wrap;rounded=0;fontStyle=4" parent="1" vertex="1">
          <mxGeometry x="-460" y="315" width="183" height="30" as="geometry" />
        </mxCell>
        <mxCell id="fgC8I-oqLa6KgGw46Ecn-33" style="edgeStyle=orthogonalEdgeStyle;rounded=0;orthogonalLoop=1;jettySize=auto;html=1;" edge="1" parent="1" source="1xZOdAHlnj8blG5HcDeI-149" target="1xZOdAHlnj8blG5HcDeI-84">
          <mxGeometry relative="1" as="geometry" />
        </mxCell>
        <mxCell id="1xZOdAHlnj8blG5HcDeI-149" value="&lt;font face=&quot;Verdana&quot;&gt;&lt;span style=&quot;font-size: 24px;&quot;&gt;id_vaga&lt;/span&gt;&lt;/font&gt;" style="text;html=1;align=center;verticalAlign=middle;whiteSpace=wrap;rounded=0;fontStyle=4" parent="1" vertex="1">
          <mxGeometry x="-230" y="315" width="100" height="30" as="geometry" />
        </mxCell>
        <mxCell id="1xZOdAHlnj8blG5HcDeI-150" value="" style="line;strokeWidth=2;direction=south;html=1;" parent="1" vertex="1">
          <mxGeometry x="-263" y="300" width="10" height="60" as="geometry" />
        </mxCell>
        <mxCell id="fgC8I-oqLa6KgGw46Ecn-1" value="" style="rounded=0;whiteSpace=wrap;html=1;" vertex="1" parent="1">
          <mxGeometry x="530" y="450" width="520" height="60" as="geometry" />
        </mxCell>
        <mxCell id="fgC8I-oqLa6KgGw46Ecn-2" value="&lt;font face=&quot;Verdana&quot; style=&quot;font-size: 24px;&quot;&gt;Curso_Contém&lt;/font&gt;" style="text;html=1;align=center;verticalAlign=middle;whiteSpace=wrap;rounded=0;" vertex="1" parent="1">
          <mxGeometry x="530" y="410" width="180" height="30" as="geometry" />
        </mxCell>
        <mxCell id="fgC8I-oqLa6KgGw46Ecn-20" style="edgeStyle=orthogonalEdgeStyle;rounded=0;orthogonalLoop=1;jettySize=auto;html=1;" edge="1" parent="1" source="fgC8I-oqLa6KgGw46Ecn-3" target="1xZOdAHlnj8blG5HcDeI-31">
          <mxGeometry relative="1" as="geometry" />
        </mxCell>
        <mxCell id="fgC8I-oqLa6KgGw46Ecn-3" value="&lt;font style=&quot;font-size: 24px;&quot; face=&quot;Verdana&quot;&gt;nome_curso&lt;/font&gt;" style="text;html=1;align=center;verticalAlign=middle;whiteSpace=wrap;rounded=0;fontStyle=4" vertex="1" parent="1">
          <mxGeometry x="590" y="465" width="150" height="30" as="geometry" />
        </mxCell>
        <mxCell id="fgC8I-oqLa6KgGw46Ecn-8" value="" style="line;strokeWidth=2;direction=south;html=1;" vertex="1" parent="1">
          <mxGeometry x="796" y="450" width="10" height="60" as="geometry" />
        </mxCell>
        <mxCell id="fgC8I-oqLa6KgGw46Ecn-19" style="edgeStyle=orthogonalEdgeStyle;rounded=0;orthogonalLoop=1;jettySize=auto;html=1;" edge="1" parent="1" source="fgC8I-oqLa6KgGw46Ecn-13" target="1xZOdAHlnj8blG5HcDeI-58">
          <mxGeometry relative="1" as="geometry">
            <Array as="points">
              <mxPoint x="922" y="580" />
              <mxPoint x="907" y="580" />
            </Array>
          </mxGeometry>
        </mxCell>
        <mxCell id="fgC8I-oqLa6KgGw46Ecn-13" value="&lt;font style=&quot;font-size: 24px;&quot; face=&quot;Verdana&quot;&gt;nome_módulo&lt;/font&gt;" style="text;html=1;align=center;verticalAlign=middle;whiteSpace=wrap;rounded=0;fontStyle=4" vertex="1" parent="1">
          <mxGeometry x="840" y="465" width="165" height="30" as="geometry" />
        </mxCell>
        <mxCell id="fgC8I-oqLa6KgGw46Ecn-22" value="" style="rounded=0;whiteSpace=wrap;html=1;" vertex="1" parent="1">
          <mxGeometry x="955" y="850" width="438" height="60" as="geometry" />
        </mxCell>
        <mxCell id="fgC8I-oqLa6KgGw46Ecn-23" value="&lt;font face=&quot;Verdana&quot; style=&quot;font-size: 24px;&quot;&gt;Módulo_Contém&lt;/font&gt;" style="text;html=1;align=center;verticalAlign=middle;whiteSpace=wrap;rounded=0;" vertex="1" parent="1">
          <mxGeometry x="900" y="820" width="180" height="30" as="geometry" />
        </mxCell>
        <mxCell id="fgC8I-oqLa6KgGw46Ecn-31" style="edgeStyle=orthogonalEdgeStyle;rounded=0;orthogonalLoop=1;jettySize=auto;html=1;entryX=0.5;entryY=1;entryDx=0;entryDy=0;" edge="1" parent="1" source="fgC8I-oqLa6KgGw46Ecn-24" target="1xZOdAHlnj8blG5HcDeI-58">
          <mxGeometry relative="1" as="geometry" />
        </mxCell>
        <mxCell id="fgC8I-oqLa6KgGw46Ecn-24" value="&lt;font style=&quot;font-size: 24px;&quot; face=&quot;Verdana&quot;&gt;nome_módulo&lt;/font&gt;" style="text;html=1;align=center;verticalAlign=middle;whiteSpace=wrap;rounded=0;fontStyle=4" vertex="1" parent="1">
          <mxGeometry x="982" y="865" width="170" height="30" as="geometry" />
        </mxCell>
        <mxCell id="fgC8I-oqLa6KgGw46Ecn-25" value="" style="line;strokeWidth=2;direction=south;html=1;" vertex="1" parent="1">
          <mxGeometry x="1179" y="850" width="10" height="60" as="geometry" />
        </mxCell>
        <mxCell id="fgC8I-oqLa6KgGw46Ecn-30" style="edgeStyle=orthogonalEdgeStyle;rounded=0;orthogonalLoop=1;jettySize=auto;html=1;" edge="1" parent="1" source="fgC8I-oqLa6KgGw46Ecn-26" target="1xZOdAHlnj8blG5HcDeI-69">
          <mxGeometry relative="1" as="geometry" />
        </mxCell>
        <mxCell id="fgC8I-oqLa6KgGw46Ecn-26" value="&lt;font style=&quot;font-size: 24px;&quot; face=&quot;Verdana&quot;&gt;nome_aula&lt;/font&gt;" style="text;html=1;align=center;verticalAlign=middle;whiteSpace=wrap;rounded=0;fontStyle=4" vertex="1" parent="1">
          <mxGeometry x="1200.5" y="865" width="165" height="30" as="geometry" />
        </mxCell>
        <mxCell id="fgC8I-oqLa6KgGw46Ecn-45" value="" style="rounded=0;whiteSpace=wrap;html=1;" vertex="1" parent="1">
          <mxGeometry x="70" y="560" width="283" height="60" as="geometry" />
        </mxCell>
        <mxCell id="fgC8I-oqLa6KgGw46Ecn-54" style="edgeStyle=orthogonalEdgeStyle;rounded=0;orthogonalLoop=1;jettySize=auto;html=1;entryX=0.75;entryY=0;entryDx=0;entryDy=0;" edge="1" parent="1" source="fgC8I-oqLa6KgGw46Ecn-47" target="1xZOdAHlnj8blG5HcDeI-84">
          <mxGeometry relative="1" as="geometry" />
        </mxCell>
        <mxCell id="fgC8I-oqLa6KgGw46Ecn-47" value="&lt;font face=&quot;Verdana&quot; style=&quot;font-size: 24px;&quot;&gt;&lt;u&gt;id_vaga&lt;/u&gt;&lt;/font&gt;" style="text;html=1;align=center;verticalAlign=middle;whiteSpace=wrap;rounded=0;" vertex="1" parent="1">
          <mxGeometry x="80" y="575" width="100" height="30" as="geometry" />
        </mxCell>
        <mxCell id="fgC8I-oqLa6KgGw46Ecn-51" value="" style="line;strokeWidth=2;direction=south;html=1;" vertex="1" parent="1">
          <mxGeometry x="190" y="560" width="10" height="60" as="geometry" />
        </mxCell>
        <mxCell id="fgC8I-oqLa6KgGw46Ecn-52" value="&lt;font style=&quot;font-size: 24px;&quot; face=&quot;Verdana&quot;&gt;habilidade&lt;/font&gt;" style="text;html=1;align=center;verticalAlign=middle;whiteSpace=wrap;rounded=0;fontStyle=4" vertex="1" parent="1">
          <mxGeometry x="203" y="575" width="140" height="30" as="geometry" />
        </mxCell>
        <mxCell id="fgC8I-oqLa6KgGw46Ecn-53" value="&lt;font face=&quot;Verdana&quot; style=&quot;font-size: 24px;&quot;&gt;Habilidade_Vaga&lt;/font&gt;" style="text;html=1;align=center;verticalAlign=middle;whiteSpace=wrap;rounded=0;" vertex="1" parent="1">
          <mxGeometry x="70" y="530" width="203" height="30" as="geometry" />
        </mxCell>
      </root>
    </mxGraphModel>
  </diagram>
</mxfile>
